<svg width="61" height="60" viewBox="0 0 61 60" fill="none" xmlns="http://www.w3.org/2000/svg">
<path d="M23 42.5C25.126 40.9243 27.7115 40 30.5 40C33.2885 40 35.874 40.9243 38 42.5" stroke="#1D4747" stroke-width="3.75" stroke-linecap="round"/>
<path d="M38 30C39.3807 30 40.5 28.3211 40.5 26.25C40.5 24.1789 39.3807 22.5 38 22.5C36.6193 22.5 35.5 24.1789 35.5 26.25C35.5 28.3211 36.6193 30 38 30Z" fill="#1D4747"/>
<path d="M23 30C24.3807 30 25.5 28.3211 25.5 26.25C25.5 24.1789 24.3807 22.5 23 22.5C21.6193 22.5 20.5 24.1789 20.5 26.25C20.5 28.3211 21.6193 30 23 30Z" fill="#1D4747"/>
<path d="M55.5 30C55.5 41.785 55.5 47.6777 51.8387 51.3387C48.1777 55 42.285 55 30.5 55C18.7149 55 12.8223 55 9.16117 51.3387C5.5 47.6777 5.5 41.785 5.5 30C5.5 18.2149 5.5 12.3223 9.16117 8.66117C12.8223 5 18.7149 5 30.5 5C42.285 5 48.1777 5 51.8387 8.66117C54.2732 11.0955 55.089 14.5164 55.3623 20" stroke="#1D4747" stroke-width="3.75" stroke-linecap="round"/>
</svg>
